<svg width="36" height="36" viewBox="0 0 36 36" fill="none" xmlns="http://www.w3.org/2000/svg">
<path d="M26 23H24.42L23.86 22.46C25.1098 21.0079 26.0233 19.2976 26.5351 17.4512C27.0468 15.6049 27.1441 13.6683 26.82 11.78C25.8799 6.22 21.2399 1.78 15.6399 1.1C13.6712 0.850935 11.6715 1.05555 9.794 1.69818C7.91647 2.34082 6.21084 3.40444 4.80761 4.80767C3.40439 6.21089 2.34076 7.91653 1.69813 9.79405C1.05549 11.6716 0.850881 13.6712 1.09995 15.64C1.77995 21.24 6.21995 25.88 11.78 26.82C13.6683 27.1441 15.6049 27.0468 17.4512 26.5351C19.2975 26.0234 21.0079 25.1099 22.4599 23.86L23 24.42V26L31.5 34.5C32.32 35.32 33.66 35.32 34.4799 34.5C35.2999 33.68 35.2999 32.34 34.4799 31.52L26 23ZM13.9999 23C9.01995 23 4.99995 18.98 4.99995 14C4.99995 9.02 9.01995 5 13.9999 5C18.9799 5 23 9.02 23 14C23 18.98 18.9799 23 13.9999 23Z" fill="#1A1A1A"/>
</svg>
