<svg width="32" height="32" viewBox="0 0 32 32" fill="none" xmlns="http://www.w3.org/2000/svg">
<path d="M8.93327 25.7333L5.2666 24.9333C4.93327 24.8667 4.6666 24.6942 4.4666 24.416C4.2666 24.1387 4.18882 23.8333 4.23327 23.5L4.59994 19.7333L2.09993 16.8667C1.87771 16.6222 1.7666 16.3333 1.7666 16C1.7666 15.6667 1.87771 15.3778 2.09993 15.1333L4.59994 12.2667L4.23327 8.5C4.18882 8.16667 4.2666 7.86133 4.4666 7.584C4.6666 7.30578 4.93327 7.13333 5.2666 7.06667L8.93327 6.26667L10.8666 3C11.0444 2.71111 11.2888 2.52222 11.5999 2.43333C11.911 2.34444 12.2222 2.35555 12.5333 2.46667L15.9999 3.93333L19.4666 2.46667C19.7777 2.35555 20.0888 2.34444 20.3999 2.43333C20.711 2.52222 20.9555 2.71111 21.1333 3L23.0666 6.26667L26.7333 7.06667C27.0666 7.13333 27.3333 7.30578 27.5333 7.584C27.7333 7.86133 27.811 8.16667 27.7666 8.5L27.3999 12.2667L29.8999 15.1333C30.1222 15.3778 30.2333 15.6667 30.2333 16C30.2333 16.3333 30.1222 16.6222 29.8999 16.8667L27.3999 19.7333L27.7666 23.5C27.811 23.8333 27.7333 24.1387 27.5333 24.416C27.3333 24.6942 27.0666 24.8667 26.7333 24.9333L23.0666 25.7333L21.1333 29C20.9555 29.2889 20.711 29.4778 20.3999 29.5667C20.0888 29.6556 19.7777 29.6444 19.4666 29.5333L15.9999 28.0667L12.5333 29.5333C12.2222 29.6444 11.911 29.6556 11.5999 29.5667C11.2888 29.4778 11.0444 29.2889 10.8666 29L8.93327 25.7333ZM13.6666 19.8C13.911 20.0444 14.2222 20.1667 14.5999 20.1667C14.9777 20.1667 15.2888 20.0444 15.5333 19.8L21.1999 14.1333C21.4666 13.8667 21.5999 13.5498 21.5999 13.1827C21.5999 12.8164 21.4666 12.5 21.1999 12.2333C20.9333 11.9667 20.6168 11.8333 20.2506 11.8333C19.8835 11.8333 19.5666 11.9667 19.2999 12.2333L14.5999 16.9333L12.6666 15.0333C12.3999 14.7889 12.0835 14.672 11.7173 14.6827C11.3502 14.6942 11.0444 14.8222 10.7999 15.0667C10.5555 15.3111 10.4333 15.6222 10.4333 16C10.4333 16.3778 10.5555 16.6889 10.7999 16.9333L13.6666 19.8Z" fill="#45BCC2"/>
</svg>
