<svg width="763" height="100" viewBox="0 0 763 100" fill="none" xmlns="http://www.w3.org/2000/svg">
<path fill-rule="evenodd" clip-rule="evenodd" d="M417.856 76.3234V99.92H405.276V19.4105H417.856V22.7736C419.244 21.7043 421 20.942 422.633 20.3574C425.137 19.4602 427.882 18.9149 430.507 18.5129C434.36 17.9221 438.406 17.7888 442.3 17.7888C447.848 17.7888 453.644 18.1133 459.078 19.2877C463.276 20.1949 467.371 21.82 470.699 24.5903C473.919 27.2713 476.035 30.7753 477.321 34.7396C478.886 39.5586 479.307 45.0142 479.307 50.0549C479.307 55.0186 478.887 60.382 477.319 65.1197C476.026 69.0261 473.893 72.4284 470.685 75.0304C467.345 77.7391 463.242 79.2983 459.068 80.1687C453.629 81.3024 447.845 81.6136 442.3 81.6136C438.41 81.6136 434.335 81.4845 430.491 80.8527C427.861 80.4206 425.096 79.837 422.602 78.8781C420.969 78.2506 419.233 77.4327 417.856 76.3234ZM502.19 53.818C502.255 56.8435 502.548 60.0699 503.423 62.8995C504.096 65.0781 505.23 67.099 507.181 68.3661C509.324 69.7584 512.03 70.3759 514.54 70.6446C518.526 71.0714 522.613 71.1713 526.619 71.1713C530.239 71.1713 533.927 71.1177 537.533 70.7975C539.639 70.6106 542.1 70.278 544.066 69.4678C545.226 68.9903 546.344 68.2623 546.961 67.1367C547.645 65.8882 547.819 64.2928 547.819 62.8918V61.4579H560.399V62.8918C560.399 65.8548 559.939 68.8761 558.612 71.5518C557.299 74.1983 555.15 76.1264 552.576 77.5236C549.422 79.2357 545.644 80.1347 542.118 80.6662C537.045 81.43 531.744 81.6136 526.619 81.6136C521.089 81.6136 515.298 81.3383 509.864 80.2576C505.727 79.435 501.607 77.9671 498.242 75.3612C495.076 72.9092 492.927 69.6719 491.608 65.9016C490.034 61.4025 489.595 56.312 489.595 51.5734C489.595 46.2459 490.01 40.4763 491.591 35.3624C492.853 31.281 494.934 27.5958 498.178 24.7672C501.49 21.8788 505.583 20.2078 509.841 19.2877C515.271 18.1143 521.076 17.7888 526.619 17.7888C530.701 17.7888 534.895 18.0387 538.905 18.8341C542.025 19.4535 545.157 20.4119 547.975 21.907C550.367 23.1755 552.547 24.8059 554.276 26.9023C555.801 28.753 557.083 30.7897 558.025 32.9979C559.032 35.3596 559.606 37.9053 559.907 40.449C560.248 43.3379 560.399 46.2492 560.399 49.1577V49.3351L559.273 53.818H502.19ZM633.778 22.8271V0H646.341V80.5095H633.778V74.3412C632.286 75.7966 630.59 77.0179 628.715 77.9317C626.391 79.0645 623.702 79.8446 621.196 80.4521C617.389 81.3746 613.24 81.6136 609.334 81.6136C603.793 81.6136 598.001 81.3015 592.566 80.1687C588.387 79.2973 584.277 77.743 580.932 75.0304C577.725 72.4298 575.607 69.0218 574.315 65.1197C572.744 60.3743 572.31 55.0277 572.31 50.0549C572.31 44.9506 572.734 39.4333 574.312 34.5513C575.589 30.5994 577.693 27.0801 580.926 24.4283C584.266 21.6886 588.372 20.1079 592.566 19.2337C598 18.1009 603.794 17.7888 609.334 17.7888C613.214 17.7888 617.236 17.9245 621.075 18.5129C623.701 18.9149 626.444 19.4598 628.949 20.3574C630.598 20.9472 632.392 21.732 633.778 22.8271ZM663.116 19.4105H675.679V80.5095H663.116V19.4105ZM675.679 12.5645H663.116V0H675.679V12.5645ZM750.42 75.3531C749.222 76.668 747.788 77.731 746.231 78.589C744.062 79.7844 741.477 80.4712 739.054 80.9167C735.393 81.5906 731.417 81.7173 727.702 81.7173C722.457 81.7173 717.081 81.5194 711.884 80.7709C708.194 80.2394 704.286 79.3685 700.901 77.7664C698.268 76.5203 695.865 74.7628 694.31 72.2577C692.804 69.8339 692.196 67.1052 692.196 64.2717C692.196 61.6276 692.457 58.8592 693.307 56.3421C694.02 54.2276 695.116 52.2951 696.668 50.6825C698.172 49.1195 699.983 47.9508 701.984 47.1249C704.145 46.233 706.444 45.647 708.746 45.2594C711.414 44.8096 714.13 44.5787 716.833 44.4812C719.896 44.3703 722.963 44.3249 726.028 44.3249C729.926 44.3249 733.906 44.4487 737.778 44.9219C740.389 45.2412 743.098 45.6848 745.622 46.4376C747.208 46.9108 748.986 47.5469 750.386 48.458C750.334 46.3295 750.215 44.193 749.964 42.099C749.713 39.994 749.29 37.7619 748.49 35.7902C747.923 34.3936 747.148 33.0562 746.033 32.0252C744.977 31.0492 743.703 30.3772 742.341 29.9393C740.582 29.3744 738.688 29.0976 736.849 28.9695C734.348 28.7951 731.829 28.7482 729.323 28.7482C725.682 28.7482 721.989 28.7941 718.357 29.0718C716.237 29.2343 713.781 29.5354 711.778 30.2806C710.671 30.6921 709.498 31.3245 708.853 32.3545C708.186 33.4199 708.002 34.7769 708.002 36.0106V37.4445H695.439V36.0106C695.439 33.1155 695.898 30.1669 697.238 27.5715C698.576 24.9804 700.742 23.1086 703.297 21.766C706.47 20.0988 710.272 19.2322 713.797 18.7179C718.888 17.9757 724.183 17.7888 729.323 17.7888C734.41 17.7888 739.752 18.1181 744.715 19.2939C748.689 20.2355 752.397 21.9519 755.353 24.8183C758.341 27.7153 760.177 31.4282 761.259 35.4098C762.655 40.5422 763 46.2746 763 51.5734V80.5095H750.42V75.3531ZM442.3 28.7482C439.45 28.7482 436.594 28.8199 433.75 29.0044C431.611 29.143 429.429 29.4255 427.359 29.9919C425.792 30.4202 424.264 31.0588 422.956 32.0353C421.727 32.953 420.806 34.1546 420.118 35.5183C419.22 37.2949 418.717 39.332 418.408 41.2893C417.963 44.1103 417.856 47.0642 417.856 49.9167C417.856 52.8004 417.965 55.7815 418.409 58.634C418.715 60.6018 419.215 62.6667 420.118 64.4534C420.806 65.8165 421.727 67.0191 422.956 67.9368C424.264 68.9138 425.783 69.5557 427.353 69.9783C429.426 70.5361 431.605 70.8181 433.745 70.95C436.589 71.1245 439.451 71.1713 442.3 71.1713C445.511 71.1713 448.743 71.0853 451.943 70.8142C454.172 70.6254 456.498 70.2904 458.637 69.616C460.118 69.1485 461.62 68.4531 462.781 67.4015C463.876 66.4107 464.65 65.1875 465.187 63.8181C465.882 62.042 466.23 60.0809 466.405 58.1881C466.653 55.4894 466.744 52.764 466.744 50.0549C466.744 47.3381 466.651 44.6093 466.404 41.903C466.23 39.9945 465.884 38.0128 465.186 36.2204C464.652 34.851 463.875 33.6126 462.781 32.6213C461.612 31.5621 460.1 30.8437 458.615 30.3485C456.493 29.6406 454.166 29.2941 451.943 29.1058C448.743 28.8347 445.511 28.7482 442.3 28.7482ZM502.189 44.4803H547.801C547.735 42.0416 547.47 39.3167 546.653 37.1563C545.911 35.1956 544.757 33.539 543.116 32.2322C541.276 30.7677 538.996 29.9628 536.707 29.535C533.42 28.9213 529.958 28.7482 526.619 28.7482C523.753 28.7482 520.881 28.7984 518.019 28.9538C515.882 29.0694 513.697 29.3065 511.611 29.7974C510.062 30.1616 508.519 30.7137 507.174 31.5759C506.064 32.2871 505.075 33.1657 504.305 34.2402C503.446 35.4403 502.985 37.1333 502.721 38.5653C502.367 40.4858 502.229 42.5029 502.189 44.4803ZM609.334 71.1713C612.184 71.1713 615.044 71.1245 617.889 70.95C620.018 70.819 622.204 70.558 624.27 70.0117C625.838 69.5968 627.355 68.9635 628.661 67.9885C629.886 67.0736 630.808 65.8686 631.503 64.5141C632.399 62.769 632.902 60.7295 633.208 58.8018C633.656 55.9894 633.778 53.0542 633.778 50.2102C633.778 47.2597 633.659 44.2212 633.208 41.3022C632.899 39.3081 632.393 37.2208 631.494 35.4045C630.816 34.0346 629.91 32.8139 628.67 31.9043C627.361 30.9431 625.825 30.3098 624.264 29.8896C622.203 29.3352 620.026 29.0694 617.899 28.9538C615.049 28.7979 612.188 28.7482 609.334 28.7482C606.118 28.7482 602.879 28.8338 599.674 29.1058C597.448 29.295 595.114 29.6306 592.979 30.304C591.498 30.771 589.996 31.4665 588.835 32.518C587.742 33.5088 586.965 34.7478 586.432 36.1167C585.733 37.9105 585.386 39.9061 585.212 41.8165C584.964 44.5477 584.89 47.3132 584.89 50.0549C584.89 52.7607 584.963 55.4923 585.212 58.1881C585.387 60.0813 585.735 62.0415 586.431 63.8181C586.967 65.1875 587.741 66.4107 588.835 67.402C589.996 68.4535 591.498 69.149 592.979 69.616C595.114 70.2894 597.448 70.625 599.674 70.8142C602.879 71.0862 606.118 71.1713 609.334 71.1713ZM729.323 71.1713C732.802 71.1713 736.405 71.0666 739.854 70.5815C742.008 70.2784 744.419 69.7904 746.404 68.8718C747.583 68.3254 748.833 67.5425 749.526 66.4068C750.179 65.3367 750.42 64.1355 750.42 62.8918C750.42 61.7189 750.148 60.5952 749.433 59.6497C748.594 58.5394 747.084 57.8272 745.806 57.3774C743.431 56.5419 740.67 56.1576 738.173 55.9163C734.176 55.5301 730.094 55.4397 726.08 55.4397C722.198 55.4397 718.287 55.4837 714.41 55.6964C712.366 55.8087 709.862 56.0453 707.931 56.7642C706.95 57.1298 705.931 57.7144 705.469 58.7019C704.896 59.9284 704.776 61.5573 704.776 62.8918C704.776 64.2975 704.921 65.9298 705.522 67.2208C706.042 68.3398 707.263 69.029 708.364 69.4573C710.553 70.3081 713.474 70.6192 715.803 70.7961C720.272 71.1345 724.842 71.1713 729.323 71.1713Z" fill="#45BCC2"/>
<path fill-rule="evenodd" clip-rule="evenodd" d="M12.5797 25.8202C12.7795 25.6137 12.9869 25.4129 13.202 25.2179C14.6362 23.9154 16.2396 22.8285 17.9644 21.9481C19.7666 21.0285 21.6558 20.3134 23.6091 19.7877C25.559 19.2628 27.5356 18.8417 29.5338 18.5459C31.4235 18.2663 33.3261 18.056 35.2334 17.9465C36.9033 17.8504 38.5769 17.7888 40.2496 17.7888C44.0304 17.7888 47.9054 17.9809 51.636 18.62C54.4748 19.1061 57.3471 19.8718 59.9508 21.1222C62.1043 22.156 64.0962 23.5388 65.6499 25.3685C67.1162 27.0959 68.2063 29.068 68.9624 31.2007C69.7825 33.5146 70.2523 35.9346 70.4869 38.3751C70.7536 41.1459 70.8415 43.943 70.8387 46.7263L70.8028 80.5095H58.2241V46.7248C58.2241 43.8154 58.0611 40.7511 57.4455 37.9005C57.0125 35.8978 56.1437 34.0719 54.6383 32.6552C52.9698 31.0846 50.6175 30.229 48.4206 29.7309C44.8008 28.9098 40.7242 28.7482 37.0237 28.7482C32.9246 28.7482 28.4312 28.9385 24.4263 29.8672C21.9048 30.4522 19.1391 31.3728 17.0329 32.9214C15.4611 34.0776 14.2342 35.5187 13.5633 37.3632C12.8521 39.3196 12.5797 41.4069 12.5797 43.4813V80.5095H0V19.4105H12.5797V25.8202ZM142.336 75.3531C141.138 76.668 139.704 77.731 138.147 78.589C135.978 79.7844 133.393 80.4712 130.97 80.9167C127.309 81.5907 123.333 81.7173 119.618 81.7173C114.373 81.7173 108.997 81.5194 103.8 80.7709C100.11 80.2394 96.2017 79.3685 92.8166 77.7664C90.1842 76.5203 87.7813 74.7628 86.2256 72.2577C84.7202 69.8339 84.1118 67.1052 84.1118 64.2717C84.1118 61.6276 84.3728 58.8592 85.2225 56.3421C85.936 54.2276 87.0319 52.2951 88.5837 50.6825C90.0877 49.1195 91.8995 47.9508 93.9 47.1249C96.0607 46.233 98.3599 45.647 100.662 45.2594C103.33 44.8096 106.046 44.5787 108.749 44.4812C111.812 44.3703 114.879 44.3249 117.944 44.3249C121.842 44.3249 125.822 44.4487 129.694 44.9219C132.305 45.2412 135.014 45.6848 137.538 46.4376C139.124 46.9108 140.902 47.5469 142.302 48.458C142.25 46.3295 142.131 44.193 141.88 42.099C141.629 39.994 141.206 37.7619 140.406 35.7902C139.839 34.3936 139.064 33.0562 137.949 32.0252C136.893 31.0492 135.619 30.3772 134.257 29.9393C132.497 29.3744 130.604 29.0976 128.764 28.9695C126.264 28.7951 123.745 28.7482 121.239 28.7482C117.598 28.7482 113.905 28.7941 110.273 29.0718C108.153 29.2343 105.697 29.5355 103.694 30.2806C102.587 30.6921 101.414 31.3245 100.769 32.3545C100.102 33.4199 99.918 34.7769 99.918 36.0106V37.4445H87.355V36.0106C87.355 33.1155 87.8142 30.1669 89.1538 27.5715C90.4915 24.9804 92.6579 23.1086 95.2129 21.766C98.3857 20.0988 102.188 19.2322 105.713 18.7179C110.804 17.9757 116.099 17.7888 121.239 17.7888C126.326 17.7888 131.668 18.1181 136.631 19.2939C140.605 20.2355 144.313 21.9519 147.269 24.8183C150.257 27.7153 152.094 31.4282 153.176 35.4098C154.571 40.5422 154.916 46.2746 154.916 51.5734V80.5095H142.336V75.3531ZM181.028 42.4613H182.397L217.987 19.4105H237.748L194.244 47.9919L238.988 80.5095H219.538L182.343 52.6101H181.028V80.5095H168.449V0H181.028V42.4613ZM249.198 53.818C249.262 56.8435 249.556 60.0699 250.431 62.8995C251.104 65.0781 252.238 67.099 254.189 68.3661C256.332 69.7584 259.038 70.3759 261.548 70.6446C265.534 71.0714 269.621 71.1713 273.627 71.1713C277.246 71.1713 280.934 71.1178 284.541 70.7975C286.647 70.6106 289.108 70.278 291.074 69.4678C292.233 68.9903 293.352 68.2623 293.969 67.1367C294.653 65.8882 294.827 64.2928 294.827 62.8918V61.4579H307.407V62.8918C307.407 65.8548 306.947 68.8761 305.619 71.5518C304.306 74.1983 302.158 76.1265 299.584 77.5236C296.429 79.2357 292.652 80.1347 289.125 80.6663C284.053 81.4301 278.751 81.6136 273.627 81.6136C268.097 81.6136 262.306 81.3383 256.872 80.2576C252.735 79.435 248.614 77.9671 245.25 75.3612C242.084 72.9092 239.935 69.6719 238.615 65.9016C237.042 61.4025 236.603 56.312 236.603 51.5734C236.603 46.2459 237.018 40.4763 238.599 35.3624C239.861 31.281 241.942 27.5958 245.185 24.7672C248.497 21.8788 252.591 20.2078 256.848 19.2877C262.279 18.1143 268.084 17.7888 273.627 17.7888C277.709 17.7888 281.903 18.0387 285.913 18.8341C289.033 19.4535 292.165 20.4119 294.983 21.907C297.375 23.1755 299.555 24.8059 301.284 26.9023C302.809 28.753 304.091 30.7897 305.032 32.9979C306.04 35.3596 306.614 37.9053 306.914 40.449C307.256 43.3379 307.407 46.2492 307.407 49.1577V49.3351L306.281 53.818H249.198ZM356.342 53.9733C352.299 53.9733 348.249 53.926 344.209 53.7654C341.165 53.6445 338.063 53.4246 335.057 52.9179C332.812 52.5399 330.48 51.9749 328.409 51.0094C326.643 50.1858 325.073 49.0325 323.9 47.4633C322.708 45.8707 321.986 44.0243 321.575 42.0885C321.122 39.9601 320.94 37.77 320.94 35.5962C320.94 32.6571 321.503 29.7209 323.07 27.1967C324.668 24.6224 327.149 22.8457 329.864 21.5953C333.38 19.9769 337.471 19.1453 341.291 18.663C346.782 17.9694 352.433 17.7888 357.964 17.7888C363.259 17.7888 368.795 17.978 374.029 18.8255C377.517 19.3895 381.327 20.334 384.415 22.1015C386.875 23.5101 388.949 25.421 390.146 28.0274C391.32 30.5813 391.744 33.4247 391.744 36.2175V37.6515H379.164V36.2175C379.164 34.9738 378.987 33.5901 378.334 32.5051C377.708 31.4641 376.529 30.8174 375.428 30.3968C373.434 29.6349 370.993 29.3103 368.878 29.1225C365.272 28.8027 361.582 28.7482 357.964 28.7482C353.91 28.7482 349.843 28.7855 345.792 28.9542C343.304 29.0584 340.527 29.2606 338.116 29.9073C336.855 30.2452 335.358 30.8279 334.526 31.8904C333.725 32.9138 333.52 34.3338 333.52 35.5962C333.52 36.653 333.58 37.7112 333.731 38.7704C333.823 39.5036 334.035 40.2134 334.483 40.796C334.91 41.3529 335.554 41.7075 336.189 41.9403C337.398 42.3566 338.856 42.5579 340.138 42.6936C342.3 42.9226 344.517 42.9823 346.69 42.9962C349.907 43.0172 353.125 43.0134 356.342 43.0134C360.382 43.0134 364.432 43.0951 368.466 43.3264C371.528 43.5019 374.645 43.7987 377.654 44.4047C379.999 44.877 382.378 45.636 384.406 46.9313C386.008 47.9547 387.523 49.1701 388.719 50.6571C389.88 52.1006 390.645 53.7697 391.082 55.5645C391.566 57.5543 391.744 59.6397 391.744 61.684C391.744 63.7627 391.559 65.8672 391.085 67.8938C390.647 69.768 389.874 71.5073 388.709 73.0416C387.495 74.6395 385.903 75.8965 384.154 76.8625C382.019 78.0417 379.591 78.8055 377.219 79.3365C374.074 80.0401 370.808 80.4277 367.598 80.6777C363.321 81.0109 359.008 81.1132 354.72 81.1132C349.595 81.1132 344.299 80.9373 339.224 80.183C335.718 79.6625 331.937 78.795 328.78 77.1359C326.235 75.7981 324.071 73.9297 322.738 71.3481C321.399 68.7532 320.94 65.7864 320.94 62.8918V61.4579H333.52V62.8918C333.52 64.2928 333.694 65.8878 334.378 67.1367C334.998 68.269 336.104 68.9884 337.271 69.4668C339.242 70.2756 341.696 70.6101 343.806 70.7975C347.413 71.1178 351.101 71.1713 354.72 71.1713C358.126 71.1713 361.56 71.1254 364.958 70.8988C367.264 70.7449 369.654 70.5232 371.918 70.0461C373.281 69.7589 374.847 69.3559 376.089 68.7107C376.847 68.3173 377.617 67.7872 378.117 67.0827C378.563 66.4537 378.838 65.7425 378.957 64.982C379.116 63.9649 379.164 62.9196 379.164 61.891C379.164 60.9995 379.122 60.0751 378.962 59.1971C378.827 58.451 378.518 57.7507 378.12 57.1088C377.712 56.4497 377.108 56.0229 376.401 55.7241C375.206 55.2208 373.748 54.9336 372.473 54.7319C370.321 54.392 368.095 54.2429 365.92 54.1444C362.734 53.9996 359.531 53.9733 356.342 53.9733ZM121.239 71.1713C124.718 71.1713 128.321 71.0666 131.77 70.5815C133.924 70.2784 136.335 69.7904 138.32 68.8718C139.499 68.3254 140.749 67.5425 141.442 66.4068C142.095 65.3367 142.336 64.1355 142.336 62.8918C142.336 61.7189 142.064 60.5952 141.349 59.6497C140.51 58.5394 139 57.8272 137.722 57.3774C135.347 56.5419 132.586 56.1577 130.089 55.9163C126.092 55.5301 122.01 55.4397 117.996 55.4397C114.113 55.4397 110.203 55.4837 106.326 55.6964C104.282 55.8087 101.778 56.0453 99.8472 56.7642C98.8656 57.1299 97.8467 57.7144 97.3855 58.7019C96.8124 59.9284 96.692 61.5573 96.692 62.8918C96.692 64.2975 96.8368 65.9298 97.438 67.2208C97.9585 68.3398 99.1786 69.029 100.28 69.4573C102.47 70.3081 105.39 70.6192 107.719 70.7961C112.188 71.1345 116.758 71.1713 121.239 71.1713ZM249.197 44.4803H294.808C294.743 42.0416 294.478 39.3167 293.66 37.1563C292.919 35.1956 291.765 33.539 290.123 32.2322C288.284 30.7677 286.004 29.9628 283.714 29.535C280.428 28.9213 276.965 28.7482 273.627 28.7482C270.761 28.7482 267.889 28.7984 265.027 28.9538C262.89 29.0694 260.705 29.3065 258.619 29.7974C257.07 30.1616 255.527 30.7137 254.182 31.5759C253.072 32.2872 252.083 33.1657 251.313 34.2402C250.453 35.4403 249.993 37.1333 249.729 38.5653C249.375 40.4858 249.237 42.5029 249.197 44.4803Z" fill="#166FB4"/>
</svg>
