<svg width="210" height="28" viewBox="0 0 210 28" fill="none" xmlns="http://www.w3.org/2000/svg">
<path fill-rule="evenodd" clip-rule="evenodd" d="M115.007 21.0064V27.5009H111.544V5.34235H115.007V6.26795C115.388 5.97367 115.872 5.76384 116.321 5.60295C117.01 5.35603 117.766 5.20593 118.488 5.09529C119.549 4.93269 120.662 4.89599 121.734 4.89599C123.261 4.89599 124.856 4.98531 126.352 5.30854C127.507 5.55822 128.634 6.0055 129.55 6.76798C130.437 7.50586 131.019 8.47027 131.373 9.56136C131.804 10.8877 131.919 12.3892 131.919 13.7766C131.919 15.1427 131.804 16.6189 131.372 17.9228C131.016 18.998 130.43 19.9344 129.547 20.6506C128.627 21.3961 127.498 21.8252 126.349 22.0648C124.852 22.3768 123.26 22.4624 121.734 22.4624C120.663 22.4624 119.542 22.4269 118.484 22.253C117.76 22.1341 116.999 21.9735 116.313 21.7096C115.863 21.5368 115.385 21.3118 115.007 21.0064ZM138.218 14.8123C138.235 15.645 138.316 16.533 138.557 17.3118C138.742 17.9114 139.054 18.4676 139.591 18.8163C140.181 19.1996 140.926 19.3695 141.617 19.4434C142.714 19.5609 143.839 19.5884 144.941 19.5884C145.937 19.5884 146.953 19.5737 147.945 19.4855C148.525 19.4341 149.202 19.3426 149.743 19.1196C150.062 18.9881 150.37 18.7878 150.54 18.478C150.728 18.1344 150.776 17.6952 150.776 17.3097V16.915H154.239V17.3097C154.239 18.1252 154.112 18.9567 153.747 19.6931C153.385 20.4215 152.794 20.9522 152.085 21.3368C151.217 21.808 150.178 22.0554 149.207 22.2017C147.811 22.4119 146.352 22.4624 144.941 22.4624C143.419 22.4624 141.825 22.3867 140.33 22.0892C139.191 21.8628 138.057 21.4588 137.131 20.7416C136.26 20.0667 135.668 19.1757 135.305 18.1381C134.872 16.8998 134.751 15.4987 134.751 14.1945C134.751 12.7282 134.865 11.1403 135.301 9.73278C135.648 8.60945 136.221 7.59518 137.113 6.81665C138.025 6.02168 139.151 5.56177 140.323 5.30854C141.818 4.98557 143.416 4.89599 144.941 4.89599C146.065 4.89599 147.219 4.96479 148.323 5.18369C149.182 5.35418 150.043 5.61795 150.819 6.02944C151.477 6.37858 152.077 6.82731 152.553 7.4043C152.973 7.91367 153.326 8.47421 153.585 9.08199C153.862 9.73199 154.02 10.4326 154.103 11.1328C154.197 11.9279 154.239 12.7291 154.239 13.5296V13.5784L153.929 14.8123H138.218ZM174.434 6.28268V0H177.892V22.1586H174.434V20.4609C174.024 20.8615 173.557 21.1976 173.041 21.4491C172.401 21.7609 171.661 21.9756 170.971 22.1428C169.924 22.3967 168.782 22.4624 167.707 22.4624C166.182 22.4624 164.588 22.3765 163.092 22.0648C161.941 21.8249 160.81 21.3971 159.89 20.6506C159.007 19.9348 158.424 18.9968 158.069 17.9228C157.636 16.6168 157.517 15.1452 157.517 13.7766C157.517 12.3717 157.633 10.8532 158.068 9.50953C158.419 8.42186 158.998 7.45324 159.888 6.72338C160.807 5.96932 161.938 5.53428 163.092 5.29367C164.587 4.98189 166.182 4.89599 167.707 4.89599C168.775 4.89599 169.882 4.93335 170.938 5.09529C171.661 5.20593 172.416 5.35589 173.106 5.60295C173.559 5.76529 174.053 5.9813 174.434 6.28268ZM182.509 5.34235H185.967V22.1586H182.509V5.34235ZM185.967 3.45812H182.509V0H185.967V3.45812ZM206.538 20.7394C206.208 21.1013 205.814 21.3938 205.385 21.63C204.788 21.959 204.076 22.148 203.409 22.2706C202.402 22.4561 201.308 22.491 200.285 22.491C198.841 22.491 197.362 22.4365 195.932 22.2305C194.916 22.0842 193.84 21.8445 192.909 21.4036C192.184 21.0606 191.523 20.5769 191.095 19.8874C190.68 19.2203 190.513 18.4693 190.513 17.6895C190.513 16.9617 190.585 16.1998 190.819 15.507C191.015 14.925 191.317 14.3932 191.744 13.9493C192.158 13.5191 192.656 13.1975 193.207 12.9702C193.801 12.7247 194.434 12.5634 195.068 12.4567C195.802 12.3329 196.55 12.2694 197.294 12.2425C198.137 12.212 198.981 12.1995 199.824 12.1995C200.897 12.1995 201.993 12.2336 203.058 12.3638C203.777 12.4517 204.523 12.5738 205.217 12.781C205.654 12.9112 206.143 13.0863 206.528 13.337C206.514 12.7512 206.481 12.1632 206.412 11.5869C206.343 11.0075 206.227 10.3932 206.007 9.85052C205.851 9.46612 205.637 9.09803 205.33 8.81428C205.04 8.54565 204.689 8.36068 204.314 8.24018C203.83 8.08469 203.309 8.00852 202.803 7.97326C202.114 7.92525 201.421 7.91235 200.731 7.91235C199.729 7.91235 198.713 7.92498 197.713 8.00142C197.13 8.04614 196.454 8.12902 195.902 8.33411C195.598 8.44738 195.275 8.62142 195.097 8.90492C194.914 9.19815 194.863 9.57162 194.863 9.91116V10.3058H191.405V9.91116C191.405 9.11435 191.532 8.3028 191.901 7.58847C192.269 6.87533 192.865 6.36017 193.568 5.99063C194.441 5.53178 195.488 5.29328 196.458 5.15173C197.859 4.94743 199.317 4.89599 200.731 4.89599C202.131 4.89599 203.602 4.98663 204.967 5.31025C206.061 5.5694 207.082 6.04181 207.896 6.83073C208.718 7.62807 209.223 8.64997 209.521 9.7458C209.905 11.1584 210 12.7361 210 14.1945V22.1586H206.538V20.7394ZM121.734 7.91235C120.95 7.91235 120.164 7.93209 119.381 7.98287C118.792 8.02102 118.192 8.09876 117.622 8.25465C117.191 8.37252 116.77 8.54828 116.41 8.81704C116.072 9.06962 115.818 9.40034 115.629 9.77566C115.382 10.2646 115.244 10.8253 115.158 11.364C115.036 12.1404 115.007 12.9534 115.007 13.7385C115.007 14.5322 115.036 15.3527 115.159 16.1378C115.243 16.6794 115.38 17.2477 115.629 17.7395C115.818 18.1146 116.072 18.4456 116.41 18.6982C116.77 18.9671 117.188 19.1438 117.62 19.2601C118.191 19.4136 118.791 19.4912 119.38 19.5275C120.162 19.5755 120.95 19.5884 121.734 19.5884C122.618 19.5884 123.508 19.5647 124.388 19.4902C125.002 19.4382 125.642 19.346 126.231 19.1603C126.638 19.0317 127.052 18.8403 127.371 18.5509C127.672 18.2782 127.886 17.9415 128.033 17.5646C128.225 17.0758 128.32 16.536 128.369 16.0151C128.437 15.2723 128.462 14.5222 128.462 13.7766C128.462 13.0288 128.436 12.2778 128.368 11.5329C128.321 11.0077 128.225 10.4622 128.033 9.96891C127.886 9.59201 127.672 9.25116 127.371 8.97832C127.049 8.6868 126.633 8.48908 126.224 8.35279C125.64 8.15796 125 8.06259 124.388 8.01075C123.508 7.93616 122.618 7.91235 121.734 7.91235ZM138.217 12.2423H150.771C150.753 11.5711 150.68 10.8211 150.455 10.2265C150.251 9.68686 149.933 9.2309 149.482 8.87124C148.975 8.46816 148.348 8.24663 147.718 8.12889C146.813 7.95998 145.86 7.91235 144.941 7.91235C144.152 7.91235 143.362 7.92617 142.574 7.96892C141.986 8.00076 141.385 8.06601 140.811 8.20111C140.384 8.30135 139.96 8.4533 139.589 8.69062C139.284 8.88637 139.012 9.12816 138.8 9.42389C138.563 9.75422 138.437 10.2202 138.364 10.6143C138.266 11.1429 138.228 11.698 138.217 12.2423ZM167.707 19.5884C168.491 19.5884 169.278 19.5755 170.061 19.5275C170.647 19.4915 171.249 19.4196 171.818 19.2693C172.249 19.1551 172.667 18.9808 173.026 18.7124C173.363 18.4606 173.617 18.129 173.808 17.7562C174.055 17.2759 174.193 16.7145 174.278 16.184C174.401 15.4099 174.434 14.6021 174.434 13.8193C174.434 13.0072 174.402 12.171 174.278 11.3676C174.193 10.8187 174.053 10.2443 173.806 9.74435C173.619 9.36732 173.37 9.03134 173.029 8.78099C172.668 8.51644 172.246 8.34214 171.816 8.2265C171.249 8.0739 170.65 8.00076 170.064 7.96892C169.28 7.92603 168.492 7.91235 167.707 7.91235C166.822 7.91235 165.93 7.9359 165.048 8.01075C164.435 8.06285 163.793 8.1552 163.206 8.34056C162.798 8.46908 162.385 8.66049 162.065 8.94991C161.764 9.22262 161.55 9.5636 161.403 9.94037C161.211 10.4341 161.116 10.9833 161.068 11.5091C161 12.2608 160.979 13.022 160.979 13.7766C160.979 14.5213 160.999 15.2731 161.068 16.0151C161.116 16.5361 161.212 17.0756 161.403 17.5646C161.551 17.9415 161.764 18.2782 162.065 18.551C162.385 18.8404 162.798 19.0318 163.206 19.1603C163.793 19.3457 164.435 19.4381 165.048 19.4902C165.93 19.565 166.822 19.5884 167.707 19.5884ZM200.731 19.5884C201.689 19.5884 202.68 19.5596 203.63 19.4261C204.223 19.3427 204.886 19.2084 205.432 18.9555C205.757 18.8052 206.101 18.5897 206.292 18.2771C206.471 17.9826 206.538 17.652 206.538 17.3097C206.538 16.9868 206.463 16.6776 206.266 16.4173C206.035 16.1118 205.62 15.9157 205.268 15.792C204.614 15.562 203.854 15.4562 203.167 15.3898C202.067 15.2835 200.944 15.2586 199.839 15.2586C198.77 15.2586 197.694 15.2707 196.627 15.3293C196.064 15.3602 195.375 15.4253 194.844 15.6232C194.573 15.7238 194.293 15.8847 194.166 16.1565C194.008 16.494 193.975 16.9424 193.975 17.3097C193.975 17.6966 194.015 18.1458 194.181 18.5011C194.324 18.8091 194.66 18.9988 194.963 19.1167C195.565 19.3508 196.369 19.4365 197.01 19.4852C198.24 19.5783 199.498 19.5884 200.731 19.5884Z" fill="#45BCC2"/>
<path fill-rule="evenodd" clip-rule="evenodd" d="M3.4623 7.10646C3.51729 7.04963 3.57437 6.99438 3.63357 6.94071C4.02831 6.58223 4.46961 6.28308 4.94433 6.04076C5.44035 5.78765 5.96032 5.59085 6.49791 5.44614C7.03457 5.3017 7.57861 5.1858 8.12856 5.10437C8.64866 5.02741 9.17231 4.96953 9.69727 4.9394C10.1569 4.91296 10.6175 4.89599 11.0779 4.89599C12.1185 4.89599 13.185 4.94887 14.2117 5.12476C14.9931 5.25855 15.7836 5.46929 16.5002 5.81343C17.0929 6.09798 17.6412 6.47856 18.0688 6.98215C18.4723 7.45758 18.7724 8.00036 18.9805 8.58735C19.2062 9.22419 19.3355 9.89025 19.4001 10.562C19.4735 11.3246 19.4977 12.0944 19.4969 12.8604L19.487 22.1586H16.025V12.86C16.025 12.0593 15.9801 11.2159 15.8107 10.4313C15.6915 9.88011 15.4524 9.37758 15.038 8.98766C14.5789 8.55538 13.9314 8.3199 13.3268 8.18283C12.3305 7.95682 11.2085 7.91235 10.19 7.91235C9.06182 7.91235 7.82511 7.96471 6.72283 8.22032C6.02884 8.38134 5.26764 8.63471 4.68796 9.06094C4.25534 9.37916 3.91768 9.77579 3.733 10.2835C3.53728 10.8219 3.4623 11.3964 3.4623 11.9673V22.1586H0V5.34235H3.4623V7.10646ZM39.175 20.7394C38.8454 21.1013 38.4508 21.3938 38.0222 21.63C37.425 21.959 36.7136 22.148 36.0467 22.2706C35.0391 22.4561 33.945 22.491 32.9223 22.491C31.4787 22.491 29.9991 22.4365 28.5688 22.2305C27.5531 22.0842 26.4775 21.8445 25.5458 21.4036C24.8213 21.0606 24.16 20.5769 23.7318 19.8874C23.3175 19.2203 23.15 18.4693 23.15 17.6895C23.15 16.9617 23.2219 16.1998 23.4557 15.507C23.6521 14.925 23.9537 14.3932 24.3808 13.9493C24.7948 13.5191 25.2934 13.1975 25.844 12.9702C26.4387 12.7247 27.0715 12.5634 27.705 12.4567C28.4395 12.3329 29.1869 12.2694 29.931 12.2425C30.774 12.212 31.618 12.1995 32.4616 12.1995C33.5346 12.1995 34.6299 12.2336 35.6956 12.3638C36.4142 12.4517 37.1597 12.5738 37.8545 12.781C38.2909 12.9112 38.7803 13.0863 39.1657 13.337C39.1515 12.7512 39.1187 12.1632 39.0496 11.5869C38.9803 11.0075 38.8639 10.3932 38.6437 9.85052C38.4877 9.46612 38.2744 9.09803 37.9675 8.81428C37.6771 8.54565 37.3264 8.36068 36.9514 8.24018C36.4672 8.08469 35.9459 8.00852 35.4398 7.97326C34.7516 7.92525 34.0582 7.91235 33.3686 7.91235C32.3664 7.91235 31.3499 7.92498 30.3503 8.00142C29.7668 8.04614 29.0909 8.12902 28.5396 8.33411C28.235 8.44738 27.9121 8.62142 27.7346 8.90492C27.5511 9.19815 27.5003 9.57162 27.5003 9.91116V10.3058H24.0426V9.91116C24.0426 9.11435 24.1691 8.3028 24.5377 7.58847C24.9059 6.87533 25.5022 6.36017 26.2054 5.99063C27.0786 5.53178 28.1251 5.29328 29.0952 5.15173C30.4966 4.94743 31.9539 4.89599 33.3686 4.89599C34.7685 4.89599 36.239 4.98663 37.6047 5.31025C38.6986 5.5694 39.719 6.04181 40.5327 6.83073C41.3551 7.62807 41.8606 8.64997 42.1584 9.7458C42.5423 11.1584 42.6374 12.7361 42.6374 14.1945V22.1586H39.175V20.7394ZM49.8243 11.6866H50.2011L59.9965 5.34235H65.4352L53.4616 13.2088L65.7764 22.1586H60.4231L50.1862 14.4798H49.8243V22.1586H46.362V0H49.8243V11.6866ZM68.5866 14.8123C68.6043 15.645 68.6851 16.533 68.9258 17.3118C69.1111 17.9114 69.4233 18.4676 69.9602 18.8163C70.55 19.1996 71.2949 19.3695 71.9856 19.4434C73.0826 19.5609 74.2075 19.5884 75.3102 19.5884C76.3063 19.5884 77.3214 19.5737 78.3141 19.4855C78.8935 19.4341 79.5709 19.3426 80.1121 19.1196C80.4312 18.9881 80.7391 18.7878 80.9088 18.478C81.0971 18.1344 81.145 17.6952 81.145 17.3097V16.915H84.6075V17.3097C84.6075 18.1252 84.4807 18.9567 84.1154 19.6931C83.7541 20.4215 83.1627 20.9522 82.4543 21.3368C81.5861 21.808 80.5464 22.0554 79.5758 22.2017C78.1797 22.4119 76.7205 22.4624 75.3102 22.4624C73.7881 22.4624 72.1942 22.3867 70.6987 22.0892C69.5599 21.8628 68.426 21.4588 67.4999 20.7416C66.6285 20.0667 66.037 19.1757 65.674 18.1381C65.2409 16.8998 65.1201 15.4987 65.1201 14.1945C65.1201 12.7282 65.2344 11.1403 65.6695 9.73278C66.0167 8.60945 66.5896 7.59518 67.4822 6.81665C68.3937 6.02168 69.5203 5.56177 70.6922 5.30854C72.1867 4.98557 73.7845 4.89599 75.3102 4.89599C76.4336 4.89599 77.5879 4.96479 78.6916 5.18369C79.5504 5.35418 80.4124 5.61795 81.188 6.02944C81.8462 6.37858 82.4463 6.82731 82.9221 7.4043C83.3419 7.91367 83.6947 8.47421 83.9539 9.08199C84.2311 9.73199 84.3891 10.4326 84.4718 11.1328C84.5658 11.9279 84.6075 12.7291 84.6075 13.5296V13.5784L84.2974 14.8123H68.5866ZM98.0757 14.855C96.9629 14.855 95.8483 14.842 94.7363 14.7978C93.8985 14.7645 93.0449 14.704 92.2175 14.5646C91.5995 14.4605 90.9578 14.305 90.3878 14.0393C89.9018 13.8126 89.4697 13.4952 89.1467 13.0633C88.8186 12.625 88.6201 12.1168 88.5069 11.584C88.3823 10.9982 88.332 10.3954 88.332 9.79711C88.332 8.98819 88.487 8.18006 88.9183 7.48533C89.3582 6.77679 90.041 6.28781 90.7884 5.94367C91.7559 5.49823 92.8818 5.26933 93.9333 5.1366C95.4446 4.94571 96.9998 4.89599 98.5221 4.89599C99.9796 4.89599 101.503 4.94808 102.944 5.18133C103.904 5.33656 104.952 5.5965 105.802 6.08298C106.479 6.47067 107.05 6.99662 107.38 7.71397C107.703 8.41686 107.819 9.19946 107.819 9.96812V10.3628H104.357V9.96812C104.357 9.62582 104.308 9.24498 104.129 8.94636C103.956 8.65983 103.632 8.48184 103.329 8.36608C102.78 8.15638 102.108 8.06706 101.526 8.01536C100.534 7.92735 99.5181 7.91235 98.5221 7.91235C97.4064 7.91235 96.287 7.92261 95.1721 7.96905C94.4874 7.99773 93.7231 8.05338 93.0593 8.23137C92.7122 8.32438 92.3004 8.48474 92.0714 8.77718C91.8509 9.05883 91.7944 9.44968 91.7944 9.79711C91.7944 10.088 91.8111 10.3792 91.8526 10.6707C91.8779 10.8725 91.9361 11.0679 92.0594 11.2283C92.1771 11.3815 92.3542 11.4791 92.529 11.5432C92.8619 11.6578 93.2631 11.7132 93.616 11.7505C94.2111 11.8135 94.8213 11.83 95.4192 11.8338C96.3047 11.8396 97.1904 11.8385 98.0757 11.8385C99.1878 11.8385 100.302 11.861 101.413 11.9247C102.255 11.973 103.113 12.0547 103.941 12.2215C104.587 12.3515 105.242 12.5604 105.8 12.9169C106.241 13.1985 106.658 13.5331 106.987 13.9423C107.306 14.3396 107.517 14.799 107.637 15.293C107.771 15.8406 107.819 16.4146 107.819 16.9772C107.819 17.5494 107.768 18.1286 107.638 18.6864C107.518 19.2022 107.305 19.6809 106.984 20.1032C106.65 20.543 106.212 20.8889 105.731 21.1548C105.143 21.4794 104.474 21.6896 103.822 21.8357C102.956 22.0294 102.057 22.1361 101.174 22.2049C99.9967 22.2966 98.8096 22.3247 97.6293 22.3247C96.2188 22.3247 94.7612 22.2763 93.3645 22.0687C92.3995 21.9254 91.3587 21.6867 90.4898 21.2301C89.7893 20.8618 89.1937 20.3476 88.827 19.6371C88.4583 18.9229 88.332 18.1064 88.332 17.3097V16.915H91.7944V17.3097C91.7944 17.6952 91.8424 18.1342 92.0307 18.478C92.2013 18.7896 92.5056 18.9876 92.8268 19.1193C93.3694 19.3419 94.0448 19.434 94.6254 19.4855C95.6181 19.5737 96.6332 19.5884 97.6293 19.5884C98.5666 19.5884 99.5119 19.5758 100.447 19.5134C101.082 19.4711 101.74 19.41 102.363 19.2787C102.738 19.1997 103.169 19.0888 103.511 18.9112C103.719 18.8029 103.931 18.657 104.069 18.4631C104.192 18.29 104.267 18.0942 104.3 17.8849C104.344 17.605 104.357 17.3173 104.357 17.0342C104.357 16.7889 104.346 16.5344 104.302 16.2928C104.264 16.0874 104.179 15.8947 104.07 15.718C103.957 15.5366 103.791 15.4191 103.596 15.3369C103.268 15.1984 102.866 15.1193 102.515 15.0638C101.923 14.9703 101.311 14.9292 100.712 14.9021C99.8351 14.8623 98.9535 14.855 98.0757 14.855ZM33.3686 19.5884C34.3262 19.5884 35.3177 19.5596 36.2669 19.4261C36.8598 19.3427 37.5234 19.2084 38.0697 18.9555C38.3943 18.8052 38.7382 18.5897 38.9289 18.2771C39.1086 17.9826 39.175 17.652 39.175 17.3097C39.175 16.9868 39.1002 16.6776 38.9035 16.4173C38.6725 16.1118 38.2569 15.9157 37.905 15.792C37.2515 15.562 36.4915 15.4562 35.8044 15.3898C34.7042 15.2835 33.5807 15.2586 32.4758 15.2586C31.4074 15.2586 30.3311 15.2707 29.2641 15.3293C28.7015 15.3602 28.0123 15.4253 27.4809 15.6232C27.2107 15.7238 26.9303 15.8847 26.8033 16.1565C26.6456 16.494 26.6125 16.9424 26.6125 17.3097C26.6125 17.6966 26.6523 18.1458 26.8178 18.5011C26.961 18.8091 27.2969 18.9988 27.6 19.1167C28.2026 19.3508 29.0064 19.4365 29.6474 19.4852C30.8774 19.5783 32.1353 19.5884 33.3686 19.5884ZM68.5863 12.2423H81.1399C81.1219 11.5711 81.0489 10.8211 80.8239 10.2265C80.6198 9.68686 80.3021 9.2309 79.8504 8.87124C79.3442 8.46816 78.7166 8.24663 78.0865 8.12889C77.182 7.95998 76.229 7.91235 75.3102 7.91235C74.5214 7.91235 73.7308 7.92617 72.9431 7.96892C72.355 8.00076 71.7536 8.06601 71.1794 8.20111C70.7532 8.30135 70.3284 8.4533 69.9582 8.69062C69.6528 8.88637 69.3807 9.12816 69.1687 9.42389C68.9321 9.75422 68.8055 10.2202 68.7327 10.6143C68.6352 11.1429 68.5974 11.698 68.5863 12.2423Z" fill="white"/>
</svg>
